<svg width="512" height="512" viewBox="0 0 512 512" xmlns="http://www.w3.org/2000/svg">
  <defs>
    <linearGradient id="grad1" x1="0%" y1="0%" x2="100%" y2="100%">
      
      
    </linearGradient>
    <radialGradient id="grad2" cx="50%" cy="50%" r="50%" fx="50%" fy="50%">
      
      
    </radialGradient>
    <pattern id="waterPattern" patternUnits="userSpaceOnUse" width="10" height="10">
      <rect x="0" y="0" width="10" height="10" fill="#8fc7ff" ></rect>
      <circle cx="5" cy="5" r="2" fill="#0052b3" ></circle>
    </pattern>
  </defs>
  <g>
    <circle cx="256" cy="256" r="150" fill="url(#grad2)" ></circle>
    <ellipse cx="256" cy="256" rx="200" ry="150" fill="url(#waterPattern)" opacity="0.5" ></ellipse>
    <polygon points="256,100 276,200 176,200" fill="#b8960c" ></polygon>
    <polygon points="256,50 300,180 212,180" fill="#c29b1f" ></polygon>
    <circle cx="100" cy="100" r="40" fill="#d9c791" opacity="0.7" ></circle>
    <circle cx="400" cy="100" r="30" fill="#8a6d3b" ></circle>
    <circle cx="100" cy="400" r="50" fill="#8a6d3b" ></circle>
    <circle cx="400" cy="400" r="40" fill="#6ba3e8" ></circle>
    <rect x="0" y="0" width="512" height="512" fill="url(#grad1)" opacity="0.2" ></rect>
    <ellipse cx="256" cy="256" rx="250" ry="200" fill="#f5e6aa" opacity="0.3" ></ellipse>
    <path d="M 256 256 Q 300 300 256 350 Q 212 300 256 256" fill="#c9b27c" ></path>
    <path d="M 256 256 Q 200 200 256 150 Q 300 200 256 256" fill="#b39768" ></path>
    <line x1="0" y1="512" x2="512" y2="0" stroke="#000000" stroke-width="5" opacity="0.1" ></line>
    <line x1="0" y1="0" x2="512" y2="512" stroke="#000000" stroke-width="5" opacity="0.1" ></line>
  </g>
</svg>