<svg xmlns="http://www.w3.org/2000/svg" viewBox="0 0 960 540" width="960" height="540"><rect width="960" height="540" fill="#fffef5" ></rect>
<defs>
  <linearGradient id="sky" x1="0" y1="0" x2="0" y2="1">
    <stop offset="0%" stop-color="#4b0082"></stop>
    <stop offset="60%" stop-color="#8b6f47"></stop>
    <stop offset="100%" stop-color="#d8c3a0"></stop>
  </linearGradient>
  <linearGradient id="ground" x1="0" y1="0" x2="0" y2="1">
    <stop offset="0%" stop-color="#56785b"></stop>
    <stop offset="100%" stop-color="#2d5016"></stop>
  </linearGradient>
  <radialGradient id="sunGlow" cx="50%" cy="50%" r="50%">
    <stop offset="0%" stop-color="#ffd700" stop-opacity="0.9"></stop>
    <stop offset="100%" stop-color="#ffd700" stop-opacity="0"></stop>
  </radialGradient>
  <radialGradient id="metroLight" cx="50%" cy="50%" r="50%">
    <stop offset="0%" stop-color="#ffffff" stop-opacity="0.8"></stop>
    <stop offset="100%" stop-color="#4b0082" stop-opacity="0"></stop>
  </radialGradient>
  <filter id="blur1">
    <feGaussianBlur stdDeviation="3"></feGaussianBlur>
  </filter>
  <filter id="blur2">
    <feGaussianBlur stdDeviation="1.5"></feGaussianBlur>
  </filter>
</defs>


<rect x="0" y="0" width="960" height="540" fill="url(#sky)"></rect>


<polygon points="0,320 120,180 240,290 360,150 480,260 600,140 720,230 840,160 960,220 960,380 0,380" fill="#2d5016" opacity="0.7"></polygon>
<polygon points="0,360 80,250 180,310 300,200 420,290 540,190 660,270 780,210 900,250 960,270 960,400 0,400" fill="#56785b" opacity="0.6"></polygon>


<rect x="0" y="390" width="960" height="150" fill="url(#ground)"></rect>


<ellipse cx="760" cy="120" rx="80" ry="80" fill="url(#sunGlow)" filter="url(#blur1)"></ellipse>
<circle cx="760" cy="120" r="35" fill="#ffd700" opacity="0.9"></circle>
<circle cx="760" cy="120" r="22" fill="#ffffff" opacity="0.7"></circle>


<rect x="0" y="280" width="960" height="18" fill="#a0522d" opacity="0.9"></rect>
<rect x="0" y="285" width="960" height="8" fill="#8b6f47"></rect>

<rect x="80" y="295" width="12" height="95" fill="#a0522d"></rect>
<rect x="200" y="295" width="12" height="95" fill="#a0522d"></rect>
<rect x="320" y="295" width="12" height="95" fill="#a0522d"></rect>
<rect x="440" y="295" width="12" height="95" fill="#a0522d"></rect>
<rect x="560" y="295" width="12" height="95" fill="#a0522d"></rect>
<rect x="680" y="295" width="12" height="95" fill="#a0522d"></rect>
<rect x="800" y="295" width="12" height="95" fill="#a0522d"></rect>
<rect x="920" y="295" width="12" height="95" fill="#a0522d"></rect>


<rect x="160" y="255" width="120" height="28" rx="4" fill="#4b0082"></rect>
<rect x="163" y="258" width="30" height="16" rx="2" fill="#ffffff" opacity="0.6"></rect>
<rect x="197" y="258" width="30" height="16" rx="2" fill="#ffffff" opacity="0.6"></rect>
<rect x="231" y="258" width="30" height="16" rx="2" fill="#ffffff" opacity="0.6"></rect>
<rect x="280" y="255" width="120" height="28" rx="4" fill="#4b0082"></rect>
<rect x="283" y="258" width="30" height="16" rx="2" fill="#ffffff" opacity="0.6"></rect>
<rect x="317" y="258" width="30" height="16" rx="2" fill="#ffffff" opacity="0.6"></rect>
<rect x="351" y="258" width="30" height="16" rx="2" fill="#ffffff" opacity="0.6"></rect>


<ellipse cx="160" cy="269" rx="15" ry="8" fill="url(#metroLight)" filter="url(#blur2)"></ellipse>
<circle cx="160" cy="269" r="5" fill="#ffd700"></circle>


<rect x="30" y="310" width="40" height="80" fill="#8b6f47"></rect>
<rect x="35" y="320" width="8" height="10" fill="#ffd700" opacity="0.7"></rect>
<rect x="48" y="320" width="8" height="10" fill="#ffd700" opacity="0.7"></rect>
<rect x="35" y="340" width="8" height="10" fill="#ffd700" opacity="0.7"></rect>
<rect x="48" y="340" width="8" height="10" fill="#ffd700" opacity="0.7"></rect>
<rect x="35" y="360" width="8" height="10" fill="#ffd700" opacity="0.3"></rect>

<rect x="75" y="325" width="35" height="65" fill="#a0522d"></rect>
<rect x="80" y="335" width="7" height="8" fill="#ffd700" opacity="0.6"></rect>
<rect x="92" y="335" width="7" height="8" fill="#ffd700" opacity="0.6"></rect>
<rect x="80" y="350" width="7" height="8" fill="#ffd700" opacity="0.6"></rect>

<rect x="115" y="315" width="45" height="75" fill="#d8c3a0"></rect>
<rect x="120" y="325" width="8" height="10" fill="#4b0082" opacity="0.7"></rect>
<rect x="133" y="325" width="8" height="10" fill="#4b0082" opacity="0.7"></rect>
<rect x="146" y="325" width="8" height="10" fill="#4b0082" opacity="0.7"></rect>
<rect x="120" y="345" width="8" height="10" fill="#4b0082" opacity="0.5"></rect>


<rect x="430" y="300" width="70" height="90" fill="#8b6f47"></rect>
<polygon points="430,300 465,265 500,300" fill="#a0522d"></polygon>
<rect x="445" y="330" width="15" height="25" fill="#4b0082"></rect>
<rect x="465" y="330" width="15" height="25" fill="#4b0082"></rect>
<rect x="440" y="310" width="10" height="12" fill="#ffd700" opacity="0.8"></rect>
<rect x="455" y="310" width="10" height="12" fill="#ffd700" opacity="0.8"></rect>
<rect x="470" y="310" width="10" height="12" fill="#ffd700" opacity="0.8"></rect>

<rect x="462" y="255" width="6" height="20" fill="#ffd700"></rect>
<rect x="456" y="260" width="18" height="5" fill="#ffd700"></rect>


<rect x="620" y="318" width="38" height="72" fill="#a0522d"></rect>
<rect x="625" y="328" width="8" height="9" fill="#ffd700" opacity="0.6"></rect>
<rect x="638" y="328" width="8" height="9" fill="#ffd700" opacity="0.6"></rect>
<rect x="625" y="345" width="8" height="9" fill="#ffd700" opacity="0.4"></rect>

<rect x="665" y="308" width="50" height="82" fill="#8b6f47"></rect>
<rect x="670" y="318" width="9" height="11" fill="#ffffff" opacity="0.5"></rect>
<rect x="684" y="318" width="9" height="11" fill="#ffffff" opacity="0.5"></rect>
<rect x="698" y="318" width="9" height="11" fill="#ffffff" opacity="0.5"></rect>
<rect x="670" y="338" width="9" height="11" fill="#ffffff" opacity="0.5"></rect>
<rect x="684" y="338" width="9" height="11" fill="#ffffff" opacity="0.5"></rect>

<rect x="720" y="322" width="35" height="68" fill="#d8c3a0"></rect>
<rect x="725" y="332" width="7" height="8" fill="#4b0082" opacity="0.6"></rect>
<rect x="737" y="332" width="7" height="8" fill="#4b0082" opacity="0.6"></rect>

<rect x="760" y="315" width="42" height="75" fill="#a0522d"></rect>
<rect x="765" y="325" width="8" height="10" fill="#ffd700" opacity="0.7"></rect>
<rect x="778" y="325" width="8" height="10" fill="#ffd700" opacity="0.7"></rect>
<rect x="765" y="345" width="8" height="10" fill="#ffd700" opacity="0.4"></rect>


<path d="M480,390 C520,370 560,340 540,300 C520,260 460,250 420,280 C380,310 390,360 430,380 C470,400 530,390 550,360 C570,330 555,290 525,275" fill="none" stroke="#ff1493" stroke-width="2" opacity="0.7"></path>
<path d="M480,390 C440,410 390,420 370,400 C350,380 370,350 400,340" fill="none" stroke="#ff1493" stroke-width="1.5" opacity="0.5"></path>


<line x1="480" y1="390" x2="480" y2="450" stroke="#2d5016" stroke-width="3"></line>
<line x1="480" y1="430" x2="430" y2="470" stroke="#2d5016" stroke-width="2"></line>
<line x1="480" y1="430" x2="530" y2="470" stroke="#2d5016" stroke-width="2"></line>
<line x1="430" y1="470" x2="400" y2="500" stroke="#2d5016" stroke-width="1.5"></line>
<line x1="430" y1="470" x2="455" y2="505" stroke="#2d5016" stroke-width="1.5"></line>
<line x1="530" y1="470" x2="510" y2="505" stroke="#2d5016" stroke-width="1.5"></line>
<line x1="530" y1="470" x2="558" y2="500" stroke="#2d5016" stroke-width="1.5"></line>


<circle cx="400" cy="505" r="7" fill="#8b6f47"></circle>
<circle cx="455" cy="510" r="7" fill="#a0522d"></circle>
<circle cx="510" cy="510" r="7" fill="#8b6f47"></circle>
<circle cx="558" cy="505" r="7" fill="#a0522d"></circle>
<circle cx="480" cy="455" r="9" fill="#ffd700"></circle>


<circle cx="200" cy="200" r="12" fill="#ff1493" opacity="0.8"></circle>
<circle cx="200" cy="188" r="5" fill="#ffd700"></circle>
<circle cx="200" cy="212" r="5" fill="#ffd700"></circle>
<circle cx="188" cy="200" r="5" fill="#ffd700"></circle>
<circle cx="212" cy="200" r="5" fill="#ffd700"></circle>
<circle cx="200" cy="200" r="4" fill="#ffffff"></circle>

<circle cx="350" cy="160" r="10" fill="#ff1493" opacity="0.7"></circle>
<circle cx="350" cy="150" r="4" fill="#ffd700"></circle>
<circle cx="350" cy="170" r="4" fill="#ffd700"></circle>
<circle cx="340" cy="160" r="4" fill="#ffd700"></circle>
<circle cx="360" cy="160" r="4" fill="#ffd700"></circle>
<circle cx="350" cy="160" r="3" fill="#ffffff"></circle>

<circle cx="580" cy="175" r="11" fill="#ff1493" opacity="0.75"></circle>
<circle cx="580" cy="164" r="4" fill="#ffd700"></circle>
<circle cx="580" cy="186" r="4" fill="#ffd700"></circle>
<circle cx="569" cy="175" r="4" fill="#ffd700"></circle>
<circle cx="591" cy="175" r="4" fill="#ffd700"></circle>
<circle cx="580" cy="175" r="3" fill="#ffffff"></circle>

<circle cx="850" cy="195" r="9" fill="#ff1493" opacity="0.7"></circle>
<circle cx="850" cy="186" r="4" fill="#ffd700"></circle>

















</svg>